<svg width="30" height="30" viewBox="0 0 30 30" fill="none" xmlns="http://www.w3.org/2000/svg">
<g clip-path="url(#clip0_29_268)">
<path d="M15 0C6.71572 0 0 6.71572 0 15C0 23.2842 6.71572 29.9999 15 29.9999C23.2842 29.9999 29.9999 23.2842 29.9999 15C29.9911 6.71942 23.2806 0.00885184 15 0ZM15 27.8571C7.89916 27.8571 2.14283 22.1008 2.14283 15C2.14283 7.89916 7.89916 2.14283 15 2.14283C22.1008 2.14283 27.8571 7.89916 27.8571 15C27.8494 22.0976 22.0976 27.8494 15 27.8571Z" fill="url(#paint0_linear_29_268)"/>
<path d="M23.2311 8.88529C22.8159 8.48426 22.1576 8.48426 21.7425 8.88529L11.7857 18.842L8.25741 15.3138C7.84633 14.8881 7.16801 14.8764 6.74243 15.2875C6.31679 15.6986 6.30505 16.3769 6.71612 16.8025C6.72472 16.8114 6.73351 16.8202 6.74243 16.8288L11.0282 21.1145C11.4465 21.5328 12.1248 21.5328 12.5431 21.1145L23.2574 10.4002C23.6685 9.97463 23.6567 9.29637 23.2311 8.88529Z" fill="url(#paint1_linear_29_268)"/>
</g>
<defs>
<linearGradient id="paint0_linear_29_268" x1="-1.14087e-07" y1="29.9999" x2="29.9999" y2="-1.14087e-07" gradientUnits="userSpaceOnUse">
<stop stop-color="#1D4FCF"/>
<stop offset="1" stop-color="#0586E8"/>
</linearGradient>
<linearGradient id="paint1_linear_29_268" x1="6.41534" y1="21.4282" x2="18.7417" y2="4.97591" gradientUnits="userSpaceOnUse">
<stop stop-color="#1D4FCF"/>
<stop offset="1" stop-color="#0586E8"/>
</linearGradient>
<clipPath id="clip0_29_268">
<rect width="30" height="30" fill="white"/>
</clipPath>
</defs>
</svg>
