<svg width="80" height="80" viewBox="0 0 80 80" fill="none" xmlns="http://www.w3.org/2000/svg">
<circle cx="40" cy="36" r="23.5" stroke="#E5E5E5"/>
<g filter="url(#filter0_d_4_52)">
<circle cx="40" cy="36" r="19.5556" fill="url(#paint0_linear_4_52)"/>
</g>
<g clip-path="url(#clip0_4_52)">
<path d="M45.2237 37.9461C44.4618 37.9461 43.7137 37.827 43.0048 37.5927C42.6575 37.4742 42.2304 37.5829 42.0184 37.8006L40.6192 38.8569C38.9964 37.9907 37.9969 36.9915 37.1425 35.3809L38.1677 34.0181C38.434 33.7521 38.5296 33.3636 38.4151 32.999C38.1798 32.2863 38.0603 31.5386 38.0603 30.7764C38.0603 30.2257 37.6124 29.7778 37.0618 29.7778H34.7764C34.2258 29.7778 33.7778 30.2257 33.7778 30.7763C33.7778 37.0877 38.9124 42.2222 45.2237 42.2222C45.7743 42.2222 46.2223 41.7742 46.2223 41.2236V38.9447C46.2223 38.3941 45.7743 37.9461 45.2237 37.9461Z" fill="white"/>
</g>
<defs>
<filter id="filter0_d_4_52" x="0.444458" y="0.444458" width="79.1111" height="79.1111" filterUnits="userSpaceOnUse" color-interpolation-filters="sRGB">
<feFlood flood-opacity="0" result="BackgroundImageFix"/>
<feColorMatrix in="SourceAlpha" type="matrix" values="0 0 0 0 0 0 0 0 0 0 0 0 0 0 0 0 0 0 127 0" result="hardAlpha"/>
<feOffset dy="4"/>
<feGaussianBlur stdDeviation="10"/>
<feComposite in2="hardAlpha" operator="out"/>
<feColorMatrix type="matrix" values="0 0 0 0 0.218698 0 0 0 0 0.583808 0 0 0 0 0.920833 0 0 0 0.49 0"/>
<feBlend mode="normal" in2="BackgroundImageFix" result="effect1_dropShadow_4_52"/>
<feBlend mode="normal" in="SourceGraphic" in2="effect1_dropShadow_4_52" result="shape"/>
</filter>
<linearGradient id="paint0_linear_4_52" x1="20.4445" y1="55.5556" x2="59.5556" y2="16.4445" gradientUnits="userSpaceOnUse">
<stop stop-color="#1D4FCF"/>
<stop offset="1" stop-color="#0586E8"/>
</linearGradient>
<clipPath id="clip0_4_52">
<rect width="12.4444" height="12.4444" fill="white" transform="translate(33.7778 29.7778)"/>
</clipPath>
</defs>
</svg>
